<svg xmlns="http://www.w3.org/2000/svg" viewBox="0 0 320 640">
  <defs>
    <linearGradient id="bg3" x1="0" y1="0" x2="1" y2="1">
      <stop offset="0%" stop-color="#0e1428"/>
      <stop offset="100%" stop-color="#202a52"/>
    </linearGradient>
    <linearGradient id="chart" x1="0" y1="0" x2="1" y2="1">
      <stop offset="0%" stop-color="#7f7dff" stop-opacity="0.95"/>
      <stop offset="100%" stop-color="#53e2ff" stop-opacity="0.85"/>
    </linearGradient>
  </defs>
  <rect width="100%" height="100%" rx="36" fill="url(#bg3)"/>
  <g transform="translate(40 96)">
    <rect width="240" height="64" rx="18" fill="rgba(255,255,255,0.15)"/>
    <rect y="88" width="240" height="192" rx="28" fill="rgba(255,255,255,0.12)"/>
    <rect y="300" width="240" height="180" rx="28" fill="rgba(255,255,255,0.12)"/>
  </g>
  <g transform="translate(64 132)" fill="#ffffff" opacity="0.8">
    <rect width="120" height="12" rx="6"/>
    <rect y="208" width="94" height="10" rx="5"/>
    <rect y="320" width="160" height="10" rx="5"/>
  </g>
  <g transform="translate(64 204)">
    <path d="M0 120 L36 80 L72 96 L108 40 L144 76 L180 52 L216 96" fill="none" stroke="url(#chart)" stroke-width="10" stroke-linecap="round" stroke-linejoin="round"/>
    <g fill="url(#chart)">
      <circle cx="0" cy="120" r="7"/>
      <circle cx="36" cy="80" r="7"/>
      <circle cx="72" cy="96" r="7"/>
      <circle cx="108" cy="40" r="7"/>
      <circle cx="144" cy="76" r="7"/>
      <circle cx="180" cy="52" r="7"/>
      <circle cx="216" cy="96" r="7"/>
    </g>
  </g>
</svg>
